:SAMPLES-PER-SECOND 30
:FULLY-SPECIFIED
:DEGREES
540
root  -21.8106 33.9029 5.31533 -174.487 -52.2514 -178.46
RightUpLeg  -15.8305 14.6921 -0.667459
RightLeg  32.8387 -8.45138 -4.69618
RightFoot  -8.04747 0.0722036 1.40409
RightToes  -31.9035 -0.157246 -0.264976
Spine  5.09864 -3.022 -3.10694
Spine1  10.207 -5.85817 -6.16468
HEad  -2.96351 -33.4702 38.6194
LeftShoulder1  0 -2.42657e-020 -4.95415e-022
LeftArm  -38.0719 5.61163 -58.3145
LeftForeArm  36.2802 -25.4653 -4.8031
LeftHand  0.170857 -7.45833 -2.99364
RightShoulder  0 2.42657e-020 1.07489e-018
RightArm  -68.963 -8.43969 76.9902
RightForeArm  21.6995 33.9505 6.8176
RightHand  -0.957243 13.5164 -7.69832
LeftUpLeg  -12.5016 6.61515 5.52134
LeftLeg  10.2868 -10.256 -1.18224
LeftFoot  5.59034 0.0500282 -1.02465
LeftToes  -23.8254 1.33192e-006 1.13262e-007
541
root  -21.3038 33.9088 5.70922 -173.548 -50.5583 -178.963
RightUpLeg  -15.6943 14.4489 -3.00425
RightLeg  32.6043 -8.17624 -4.50187
RightFoot  -8.10836 0.0696893 1.36088
RightToes  -32.4009 -0.160799 -0.268302
Spine  5.28508 -2.75665 -2.87809
Spine1  10.5362 -5.28891 -5.81092
HEad  -5.26286 -32.1112 37.6762
LeftShoulder1  0 -2.42657e-020 -4.95415e-022
LeftArm  -33.8814 4.74576 -61.2619
LeftForeArm  36.2237 -24.8693 -4.67439
LeftHand  0.164792 -6.9782 -3.07528
RightShoulder  0 2.42657e-020 1.07489e-018
RightArm  -64.9732 -7.37174 76.1499
RightForeArm  20.6537 35.4058 7.20116
RightHand  -0.966915 13.7124 -7.66232
LeftUpLeg  -12.679 9.94406 4.91077
LeftLeg  8.13741 -12.1002 -0.936722
LeftFoot  7.29101 0.100898 -1.58357
LeftToes  -23.6452 1.33192e-006 1.13262e-007
542
root  -20.747 33.9078 6.04558 -172.381 -49.2636 -179.326
RightUpLeg  -15.6512 12.7603 -5.47206
RightLeg  31.4801 -7.39652 -3.89066
RightFoot  -6.9226 0.0401107 1.0408
RightToes  -33.4087 -0.168084 -0.274945
Spine  5.28291 -2.67694 -2.6209
Spine1  10.4973 -5.10923 -5.39689
HEad  -6.3867 -31.0157 36.0956
LeftShoulder1  0 -2.42657e-020 -4.95415e-022
LeftArm  -28.5756 3.37095 -63.9673
LeftForeArm  37.8776 -23.9344 -4.47331
LeftHand  0.227808 -7.33725 -3.92551
RightShoulder  0 2.42657e-020 1.07489e-018
RightArm  -62.2986 -6.03758 75.8761
RightForeArm  22.3855 36.6642 7.5448
RightHand  -1.04131 14.6753 -7.70671
LeftUpLeg  -12.6495 12.3094 4.41103
LeftLeg  4.66944 -13.4305 -0.229949
LeftFoot  9.61961 0.194962 -2.31668
LeftToes  -23.2048 1.33192e-006 1.13262e-007
543
root  -20.1163 33.8456 6.30743 -171.305 -48.1885 -179.282
RightUpLeg  -15.7261 10.3681 -7.64398
RightLeg  29.8102 -7.02409 -3.43916
RightFoot  -5.88821 0.0232383 0.829492
RightToes  -34.4647 -0.175843 -0.281768
Spine  5.14685 -2.65871 -2.28895
Spine1  10.1931 -5.05381 -4.87392
HEad  -6.6381 -30.0978 34.4082
LeftShoulder1  0 -2.42657e-020 -4.95415e-022
LeftArm  -21.2496 2.29669 -66.2881
LeftForeArm  39.0257 -24.8524 -4.66784
LeftHand  0.341758 -7.75807 -5.4118
RightShoulder  0 2.42657e-020 1.07489e-018
RightArm  -60.0349 -4.73688 75.9976
RightForeArm  23.4169 37.728 7.8444
RightHand  -1.09828 15.4845 -7.6983
LeftUpLeg  -13.6183 12.7805 4.47494
LeftLeg  2.76324 -13.0867 0.207683
LeftFoot  11.1629 0.255804 -2.61717
LeftToes  -24.4864 1.33192e-006 1.13262e-007
544
root  -19.3864 33.7275 6.50217 -170.674 -47.2718 -179.186
RightUpLeg  -15.6792 8.5247 -9.61126
RightLeg  28.3252 -7.36018 -3.36835
RightFoot  -5.32682 0.0187175 0.780014
RightToes  -34.2306 -0.174112 -0.280268
Spine  5.25226 -2.65176 -1.98441
Spine1  10.3375 -5.02277 -4.35707
HEad  -7.2621 -29.0179 33.1103
LeftShoulder1  0 -2.42657e-020 -4.95415e-022
LeftArm  -14.3206 0.135067 -68.6239
LeftForeArm  40.6691 -24.8703 -4.66975
LeftHand  0.396679 -8.79462 -5.5293
RightShoulder  0 2.42657e-020 1.07489e-018
RightArm  -57.5019 -2.90483 76.1923
RightForeArm  23.7747 38.1257 7.95866
RightHand  -1.07181 15.6642 -7.41323
LeftUpLeg  -15.5338 14.7333 4.59055
LeftLeg  3.1624 -14.1925 0.126987
LeftFoot  11.879 0.315836 -3.03512
LeftToes  -26.3398 1.33192e-006 1.13262e-007
545
root  -18.6169 33.5555 6.67233 -170.206 -45.6047 -179.718
RightUpLeg  -15.9508 8.51607 -12.0441
RightLeg  27.73 -6.85714 -3.05447
RightFoot  -3.89811 0.00561412 0.542619
RightToes  -34.1843 -0.173771 -0.279971
Spine  5.68629 -2.45945 -1.953
Spine1  11.0686 -4.6408 -4.23603
HEad  -8.37829 -27.9721 32.4819
LeftShoulder1  0 -2.42657e-020 -4.95415e-022
LeftArm  -8.48935 -2.90026 -70.8692
LeftForeArm  41.7321 -23.8929 -4.46002
LeftHand  0.436878 -9.51463 -5.61993
RightShoulder  0 2.42657e-020 1.07489e-018
RightArm  -54.8553 -0.174881 76.5727
RightForeArm  24.9551 37.2182 7.69957
RightHand  -1.11043 15.9762 -7.53371
LeftUpLeg  -16.9065 15.4027 4.65674
LeftLeg  4.16629 -13.1614 -0.110794
LeftFoot  12.5969 0.331608 -3.00375
LeftToes  -26.976 1.33192e-006 1.13262e-007
